<svg width="163" height="36" viewBox="0 0 163 36" fill="none" xmlns="http://www.w3.org/2000/svg">
<g clip-path="url(#clip0)">
<path fill-rule="evenodd" clip-rule="evenodd" d="M18.7043 0C27.5813 0 34.8505 6.99993 34.8505 15.6875C34.8505 23.0001 29.7039 29.1248 22.7569 30.8752L18.7043 36L14.6517 30.8752C7.70424 29.1248 2.55813 23.0001 2.55813 15.6875C2.55813 6.99993 9.76305 0 18.7043 0" fill="#FFA300"/>
<path d="M10.426 10.0296C10.0994 10.1608 10.0998 10.617 10.4267 10.7476L17.992 13.7704C18.4811 13.9658 19.0281 13.9658 19.5172 13.7704L27.0825 10.7476C27.4094 10.617 27.4099 10.1608 27.0832 10.0296L19.5207 6.99172C19.0296 6.79443 18.4797 6.79443 17.9885 6.99172L10.426 10.0296Z" fill="white"/>
<path d="M9.16768 13.0524C9.16768 12.7497 9.47894 12.5436 9.76308 12.6582L16.654 15.4371C17.2941 15.6952 17.7124 16.3094 17.7124 16.9913V23.5737C17.7124 23.8764 17.4011 24.0825 17.117 23.9679L10.226 21.189C9.5859 20.9308 9.16768 20.3166 9.16768 19.6347V13.0524Z" fill="white"/>
<path d="M28.3354 13.0524C28.3354 12.7497 28.0241 12.5436 27.74 12.6582L20.849 15.4371C20.2089 15.6952 19.7907 16.3094 19.7907 16.9913V23.5737C19.7907 23.8764 20.1019 24.0825 20.3861 23.9679L27.277 21.189C27.9171 20.9308 28.3354 20.3166 28.3354 19.6347V13.0524Z" fill="white"/>
<path fill-rule="evenodd" clip-rule="evenodd" d="M57.2066 23.668H57.2557V25.4653H60.4974V10.5042H57.2557V12.35H57.2066C56.3716 11.0871 54.6525 10.1156 52.3931 10.1156C47.4815 10.1156 44.3871 14.293 44.3871 17.9847C44.3871 21.8707 47.285 25.9025 52.2458 25.9025C54.3087 25.9025 56.1751 25.0281 57.2066 23.668ZM57.4031 17.9782C57.4031 20.6499 55.1928 22.8358 52.6387 22.8358C49.9864 22.8358 47.8253 20.6499 47.8253 17.9782C47.8253 15.3066 49.9864 13.1207 52.6387 13.1207C55.1928 13.1207 57.4031 15.3066 57.4031 17.9782Z" fill="black"/>
<path fill-rule="evenodd" clip-rule="evenodd" d="M64.8667 13.6264H62.7547V10.6148H64.8667V8.08885C64.8667 5.32007 66.5858 2.64844 70.5151 2.64844C71.301 2.64844 72.3324 2.79416 73.0201 3.03704L71.6939 5.95155C71.2519 5.75725 70.8589 5.6601 70.2695 5.6601C68.9434 5.6601 68.1575 6.72875 68.1575 7.84598V10.5662H71.3992V13.5778H68.1575V25.5273H64.9158V13.6264H64.8667Z" fill="black"/>
<path fill-rule="evenodd" clip-rule="evenodd" d="M74.8674 13.5274H73.0009V10.5158H74.8674V6.04688H78.1091V10.5158H80.4176V13.5274H78.1091V25.4769H74.8674V13.5274Z" fill="black"/>
<path fill-rule="evenodd" clip-rule="evenodd" d="M89.8356 25.9025C92.5371 25.9025 95.042 24.5424 96.8593 22.2593L94.1088 20.7049C92.9791 22.2107 91.5056 23.0365 89.7374 23.0365C87.478 23.0365 85.3169 21.385 85.1204 19.1019H97.6943V18.519C97.6943 12.69 92.9791 10.1155 89.8356 10.1155C84.531 10.1155 81.4858 14.0016 81.4858 17.9847C81.4858 21.9679 84.531 25.9025 89.8356 25.9025ZM89.3069 12.9264C91.3698 12.9264 93.0889 14.1408 93.7765 16.4238H85.0337C85.574 14.1893 87.244 12.9264 89.3069 12.9264Z" fill="black"/>
<path fill-rule="evenodd" clip-rule="evenodd" d="M100.167 10.4199H103.213V12.0714H103.262C103.802 10.857 104.932 10.0312 106.258 10.0312C106.995 10.0312 107.584 10.2256 108.026 10.517L106.847 13.723C106.552 13.4801 105.963 13.2858 105.619 13.2858C104.44 13.2858 103.36 14.1601 103.36 15.5688V25.4781H100.118V10.4199H100.167Z" fill="black"/>
<path fill-rule="evenodd" clip-rule="evenodd" d="M110.417 20.9882C111.596 22.2026 113.462 23.1741 115.181 23.1741C117.048 23.1741 118.178 22.1054 118.178 21.2796C118.178 20.3081 117.392 19.7738 116.213 19.5309L114.346 19.1909C110.073 18.4137 108.894 17.0536 108.894 14.9163C108.894 12.3904 111.056 10.0102 114.838 10.0102C116.95 10.0102 118.767 10.6417 120.83 12.0989L118.963 14.382C117.392 13.0704 115.967 12.7304 114.887 12.7304C113.462 12.7304 112.087 13.4105 112.087 14.6248C112.087 15.4992 112.824 15.9849 114.052 16.1792L117.343 16.8107C120.044 17.2965 121.37 18.5594 121.37 20.7939C121.37 22.9798 119.553 25.8457 114.936 25.8457C112.382 25.8457 110.172 24.9713 108.109 23.2226L110.417 20.9882Z" fill="black"/>
<path fill-rule="evenodd" clip-rule="evenodd" d="M123.287 6.04688H126.529V12.4102H126.578C127.462 11.0015 129.132 10.1272 131.195 10.1272C134.388 10.1272 137.089 12.7502 137.089 16.4905V25.5255H133.847V17.1706C133.847 14.4504 132.423 13.3331 130.262 13.3331C128.15 13.3331 126.529 14.6447 126.529 17.122V25.5255H123.287V6.04688V6.04688Z" fill="black"/>
<path fill-rule="evenodd" clip-rule="evenodd" d="M143.339 7.24242C143.339 6.27092 142.504 5.44514 141.521 5.44514C140.49 5.44514 139.704 6.22234 139.704 7.24242C139.704 8.21393 140.539 9.0397 141.521 9.0397C142.504 9.0397 143.339 8.21393 143.339 7.24242ZM143.158 10.5369H139.916V25.4981H143.158V10.5369Z" fill="black"/>
<path fill-rule="evenodd" clip-rule="evenodd" d="M149.477 12.2948H149.428V10.4975H146.186V30.6562H149.428V23.6128H149.477C150.312 24.8758 152.031 25.8473 154.291 25.8473C159.202 25.8473 162.297 21.6698 162.297 17.9781C162.297 14.0921 159.399 10.0603 154.438 10.0603C152.375 10.0603 150.656 10.8861 149.477 12.2948ZM149.28 17.9781C149.28 15.3065 151.491 13.1206 154.045 13.1206C156.697 13.1206 158.858 15.3065 158.858 17.9781C158.858 20.6498 156.697 22.8356 154.045 22.8356C151.491 22.8356 149.28 20.6498 149.28 17.9781Z" fill="black"/>
</g>
<defs>
<clipPath id="clip0">
<rect width="163" height="36" fill="white"/>
</clipPath>
</defs>
</svg>
